<svg xmlns="http://www.w3.org/2000/svg" width="16" height="16" fill="none">
  <path fill="#F4F4FD" d="M11.4607 4.4894c.1644-.1444.3831-.2243.61-.2227.2269.0016.4443.0845.6062.2312.162.1467.2559.3457.2619.5551.006.2094-.0764.4127-.2297.5671l-4.655 5.3739a.8779.8779 0 0 1-.284.1878.937.937 0 0 1-.341.0702.9405.9405 0 0 1-.3436-.0585.8852.8852 0 0 1-.2914-.178L3.707 8.166a.8122.8122 0 0 1-.2028-.2622.7557.7557 0 0 1-.0756-.3145.753.753 0 0 1 .0636-.3167.8058.8058 0 0 1 .1926-.2687.884.884 0 0 1 .291-.1777.9396.9396 0 0 1 .3431-.0587.9368.9368 0 0 1 .3407.0698.8775.8775 0 0 1 .284.1871l2.443 2.254 4.0519-4.7653a.3046.3046 0 0 1 .0233-.0237h-.0012Z"/>
  <rect width="14.75" height="14.75" x=".625" y=".625" stroke="#2E2F42" stroke-width="1.25" rx="1.375"/>
</svg>
